<svg width="15" height="14" viewBox="0 0 15 14" fill="none" xmlns="http://www.w3.org/2000/svg">
<path d="M11.0625 5.625H7C6.65625 5.625 6.375 5.34375 6.375 5C6.375 4.65625 6.65625 4.375 7 4.375H11.0625C11.5813 4.375 12 3.95625 12 3.4375C12 2.91875 11.5813 2.5 11.0625 2.5H9.5C9.15625 2.5 8.875 2.21875 8.875 1.875C8.875 1.53125 9.15625 1.25 9.5 1.25H11.0625C12.2688 1.25 13.25 2.23125 13.25 3.4375C13.25 4.64375 12.2688 5.625 11.0625 5.625ZM13.25 11.5625C13.25 10.3563 12.2688 9.375 11.0625 9.375H7C6.65625 9.375 6.375 9.65625 6.375 10C6.375 10.3438 6.65625 10.625 7 10.625H11.0625C11.5813 10.625 12 11.0438 12 11.5625C12 12.0813 11.5813 12.5 11.0625 12.5H9.5C9.15625 12.5 8.875 12.7813 8.875 13.125C8.875 13.4688 9.15625 13.75 9.5 13.75H11.0625C12.2688 13.75 13.25 12.7688 13.25 11.5625ZM9.5 7.5C9.5 7.15625 9.21875 6.875 8.875 6.875H5.75C5.40625 6.875 5.125 7.15625 5.125 7.5C5.125 7.84375 5.40625 8.125 5.75 8.125H8.875C9.21875 8.125 9.5 7.84375 9.5 7.5ZM4.5 7.5C4.5 7.15625 4.21875 6.875 3.875 6.875H3.25C2.90625 6.875 2.625 7.15625 2.625 7.5C2.625 7.84375 2.90625 8.125 3.25 8.125H3.875C4.21875 8.125 4.5 7.84375 4.5 7.5ZM5.75 5C5.75 4.65625 5.46875 4.375 5.125 4.375H3.875C3.53125 4.375 3.25 4.65625 3.25 5C3.25 5.34375 3.53125 5.625 3.875 5.625H5.125C5.46875 5.625 5.75 5.34375 5.75 5ZM5.75 10C5.75 9.65625 5.46875 9.375 5.125 9.375H3.875C3.53125 9.375 3.25 9.65625 3.25 10C3.25 10.3438 3.53125 10.625 3.875 10.625H5.125C5.46875 10.625 5.75 10.3438 5.75 10ZM6.375 11.875C6.375 12.2188 6.09375 12.5 5.75 12.5H2.625C2.28125 12.5 2 12.2188 2 11.875V3.125C2 2.78125 2.28125 2.5 2.625 2.5H5.75C6.09375 2.5 6.375 2.78125 6.375 3.125H7.625C7.625 2.09375 6.78125 1.25 5.75 1.25H2.625C1.59375 1.25 0.75 2.09375 0.75 3.125V11.875C0.75 12.9063 1.59375 13.75 2.625 13.75H5.75C6.78125 13.75 7.625 12.9063 7.625 11.875H6.375Z" fill="white"/>
</svg>
