<svg width="17" height="17" viewBox="0 0 17 17" fill="none" xmlns="http://www.w3.org/2000/svg">
<path d="M7.18251 0.352255C6.99123 0.0760259 6.65658 -0.0567867 6.33249 0.0228796C2.60314 0.941937 0 4.27288 0 8.12445C0 12.7251 3.74531 16.4704 8.34595 16.4704C12.1975 16.4704 15.5284 13.8673 16.4475 10.1379C16.5272 9.81382 16.3944 9.47913 16.1181 9.28789C15.8472 9.10196 15.4806 9.10728 15.2097 9.29852C14.2269 9.99446 13.0741 10.3663 11.8734 10.3663C8.69124 10.3663 6.10405 7.77915 6.10405 4.59694C6.10406 3.39634 6.47594 2.2435 7.17188 1.26071C7.36312 0.989765 7.36844 0.623197 7.18251 0.352255Z" fill="#F1FF2A"/>
</svg>
