<svg width="25" height="18" viewBox="0 0 25 18" fill="none" xmlns="http://www.w3.org/2000/svg">
<path d="M20.5355 5.25552C19.7709 3.50028 18.4517 2.04427 16.7802 1.11072C15.1087 0.177168 13.1771 -0.182389 11.2816 0.0871775C9.38617 0.356744 7.63142 1.24055 6.28644 2.6031C4.94146 3.96564 4.08049 5.73171 3.83554 7.63052C2.64378 7.91592 1.59832 8.62906 0.897716 9.63451C0.197111 10.64 -0.109851 11.8677 0.0351236 13.0845C0.180098 14.3014 0.766912 15.4226 1.68413 16.2353C2.60134 17.048 3.78508 17.4956 5.01054 17.493H18.7605C20.2597 17.4889 21.7075 16.946 22.8398 15.9634C23.9721 14.9808 24.7134 13.6239 24.9286 12.1402C25.1438 10.6565 24.8185 9.14492 24.0121 7.8811C23.2056 6.61727 21.9718 5.68543 20.5355 5.25552ZM18.7605 14.993H5.01054C4.3475 14.993 3.71162 14.7296 3.24278 14.2608C2.77394 13.7919 2.51054 13.1561 2.51054 12.493C2.51054 11.83 2.77394 11.1941 3.24278 10.7253C3.71162 10.2564 4.3475 9.99302 5.01054 9.99302C5.34206 9.99302 5.66001 9.86133 5.89443 9.62691C6.12885 9.39248 6.26054 9.07454 6.26054 8.74302C6.26374 7.26462 6.7909 5.83521 7.74838 4.70875C8.70586 3.58229 10.0317 2.83171 11.4902 2.59036C12.9488 2.34902 14.4457 2.63253 15.715 3.39053C16.9843 4.14854 17.9438 5.33195 18.423 6.73052C18.4964 6.94299 18.6256 7.13176 18.7972 7.27695C18.9688 7.42214 19.1764 7.51837 19.398 7.55552C20.3143 7.72459 21.1348 8.22868 21.6997 8.96961C22.2646 9.71053 22.5335 10.6352 22.4539 11.5635C22.3743 12.4918 21.952 13.3573 21.2693 13.9913C20.5865 14.6252 19.6922 14.9823 18.7605 14.993Z" fill="white"/>
</svg>
