<svg width="27" height="23" viewBox="0 0 27 23" fill="none" xmlns="http://www.w3.org/2000/svg">
<path d="M21.5166 4.84723C20.7749 3.39651 19.649 2.17731 18.2619 1.32258C16.8747 0.46786 15.2795 0.0104283 13.6502 0.000176196C12.0209 -0.0100759 10.4201 0.427245 9.02226 1.26445C7.62446 2.10165 6.48338 3.30659 5.72345 4.74785C4.14032 4.94667 2.68453 5.71753 1.63033 6.91523C0.576125 8.11293 -0.00372282 9.65479 1.79876e-05 11.2504V11.3497C0.0220278 12.0796 0.328506 12.7718 0.854005 13.2788C1.3795 13.7857 2.08237 14.0671 2.81252 14.0629H23.3972C24.0721 14.0606 24.7239 13.8174 25.2353 13.377C25.7467 12.9366 26.0839 12.328 26.1863 11.661C26.4073 10.1461 26.0495 8.60361 25.1841 7.34081C24.3186 6.07801 23.0091 5.18768 21.5166 4.84723ZM24.3291 11.3882C24.2941 11.6115 24.1804 11.8149 24.0084 11.9616C23.8364 12.1083 23.6176 12.1886 23.3916 12.1879H2.81252C2.68913 12.1889 2.56677 12.1653 2.45257 12.1185C2.33838 12.0718 2.23463 12.0027 2.14738 11.9155C2.06012 11.8282 1.99111 11.7245 1.94435 11.6103C1.89759 11.4961 1.87402 11.3737 1.87502 11.2504C1.87252 10.0396 2.34038 8.87518 3.17993 8.00276C4.01947 7.13033 5.16505 6.6181 6.37502 6.5741C6.54871 6.56688 6.71697 6.51149 6.86101 6.41415C7.00504 6.3168 7.11917 6.18132 7.19064 6.02285C7.74689 4.78424 8.65017 3.73337 9.79119 2.99741C10.9322 2.26145 12.2621 1.87193 13.6198 1.876C14.9776 1.88007 16.3051 2.27754 17.4417 3.02032C18.5783 3.76311 19.4753 4.81937 20.0241 6.06129C20.0887 6.20702 20.1894 6.33386 20.3167 6.42982C20.444 6.52579 20.5937 6.58771 20.7516 6.60973C21.7553 6.75535 22.6733 7.2567 23.3384 8.02244C24.0035 8.78819 24.3714 9.76737 24.375 10.7816C24.3751 10.9846 24.3604 11.1873 24.331 11.3882H24.3291ZM3.10877 15.9857C2.87293 15.9073 2.61564 15.9258 2.39343 16.0371C2.17123 16.1484 2.0023 16.3433 1.92377 16.5791L0.986268 19.3916C0.947364 19.5086 0.931877 19.632 0.940693 19.755C0.949508 19.8779 0.982453 19.9979 1.03765 20.1081C1.09284 20.2183 1.1692 20.3166 1.26237 20.3973C1.35553 20.478 1.46368 20.5396 1.58064 20.5785C1.6976 20.6174 1.82108 20.6329 1.94402 20.6241C2.06696 20.6152 2.18697 20.5823 2.29718 20.5271C2.40739 20.4719 2.50565 20.3955 2.58635 20.3024C2.66705 20.2092 2.72861 20.1011 2.76752 19.9841L3.70502 17.1716C3.74389 17.0546 3.75929 16.9311 3.75035 16.8081C3.74141 16.6851 3.7083 16.5651 3.65292 16.4549C3.59753 16.3448 3.52096 16.2466 3.42759 16.1661C3.33421 16.0856 3.22587 16.0243 3.10877 15.9857ZM7.79627 17.8607C7.56043 17.7823 7.30314 17.8008 7.08093 17.9121C6.85873 18.0234 6.6898 18.2183 6.61127 18.4541L5.67377 21.2666C5.63486 21.3836 5.61938 21.507 5.62819 21.63C5.63701 21.7529 5.66995 21.8729 5.72515 21.9831C5.78034 22.0933 5.8567 22.1916 5.94987 22.2723C6.04303 22.353 6.15118 22.4146 6.26814 22.4535C6.3851 22.4924 6.50858 22.5079 6.63152 22.4991C6.75446 22.4902 6.87447 22.4573 6.98468 22.4021C7.09489 22.3469 7.19315 22.2705 7.27385 22.1774C7.35455 22.0842 7.41611 21.9761 7.45502 21.8591L8.39252 19.0466C8.43139 18.9296 8.44679 18.8061 8.43785 18.6831C8.42892 18.5601 8.3958 18.4401 8.34042 18.3299C8.28503 18.2198 8.20846 18.1216 8.11509 18.0411C8.02171 17.9606 7.91337 17.8993 7.79627 17.8607ZM13.4213 15.9857C13.1854 15.9073 12.9281 15.9258 12.7059 16.0371C12.4837 16.1484 12.3148 16.3433 12.2363 16.5791L11.2988 19.3916C11.2599 19.5086 11.2444 19.632 11.2532 19.755C11.262 19.8779 11.295 19.9979 11.3501 20.1081C11.4053 20.2183 11.4817 20.3166 11.5749 20.3973C11.668 20.478 11.7762 20.5396 11.8931 20.5785C12.0101 20.6174 12.1336 20.6329 12.2565 20.6241C12.3795 20.6152 12.4995 20.5823 12.6097 20.5271C12.7199 20.4719 12.8182 20.3955 12.8989 20.3024C12.9796 20.2092 13.0411 20.1011 13.08 19.9841L14.0175 17.1716C14.0564 17.0546 14.0718 16.9311 14.0629 16.8081C14.0539 16.6851 14.0208 16.5651 13.9654 16.4549C13.91 16.3448 13.8335 16.2466 13.7401 16.1661C13.6467 16.0856 13.5384 16.0243 13.4213 15.9857ZM18.1088 17.8607C17.8729 17.7823 17.6156 17.8008 17.3934 17.9121C17.1712 18.0234 17.0023 18.2183 16.9238 18.4541L15.9863 21.2666C15.9474 21.3836 15.9319 21.507 15.9407 21.63C15.9495 21.7529 15.9825 21.8729 16.0376 21.9831C16.0928 22.0933 16.1692 22.1916 16.2624 22.2723C16.3555 22.353 16.4637 22.4146 16.5806 22.4535C16.6976 22.4924 16.8211 22.5079 16.944 22.4991C17.067 22.4902 17.187 22.4573 17.2972 22.4021C17.4074 22.3469 17.5057 22.2705 17.5864 22.1774C17.6671 22.0842 17.7286 21.9761 17.7675 21.8591L18.705 19.0466C18.7439 18.9296 18.7593 18.8061 18.7504 18.6831C18.7414 18.5601 18.7083 18.4401 18.6529 18.3299C18.5975 18.2198 18.521 18.1216 18.4276 18.0411C18.3342 17.9606 18.2259 17.8993 18.1088 17.8607ZM23.7338 15.9857C23.4979 15.9073 23.2406 15.9258 23.0184 16.0371C22.7962 16.1484 22.6273 16.3433 22.5488 16.5791L21.6113 19.3916C21.5724 19.5086 21.5569 19.632 21.5657 19.755C21.5745 19.8779 21.6075 19.9979 21.6626 20.1081C21.7178 20.2183 21.7942 20.3166 21.8874 20.3973C21.9805 20.478 22.0887 20.5396 22.2056 20.5785C22.3226 20.6174 22.4461 20.6329 22.569 20.6241C22.692 20.6152 22.812 20.5823 22.9222 20.5271C23.0324 20.4719 23.1307 20.3955 23.2114 20.3024C23.2921 20.2092 23.3536 20.1011 23.3925 19.9841L24.33 17.1716C24.3689 17.0546 24.3843 16.9311 24.3754 16.8081C24.3664 16.6851 24.3333 16.5651 24.2779 16.4549C24.2225 16.3448 24.146 16.2466 24.0526 16.1661C23.9592 16.0856 23.8509 16.0243 23.7338 15.9857Z" fill="white"/>
</svg>
