<svg width="24" height="24" viewBox="0 0 24 24" fill="none" xmlns="http://www.w3.org/2000/svg">
<path d="M3.5 11.6667C3.5 11.3572 3.37708 11.0605 3.15829 10.8417C2.9395 10.6229 2.64275 10.5 2.33333 10.5H1.16667C0.857247 10.5 0.560501 10.6229 0.341709 10.8417C0.122916 11.0605 0 11.3572 0 11.6667C0 11.9761 0.122916 12.2728 0.341709 12.4916C0.560501 12.7104 0.857247 12.8333 1.16667 12.8333H2.33333C2.64275 12.8333 2.9395 12.7104 3.15829 12.4916C3.37708 12.2728 3.5 11.9761 3.5 11.6667ZM4.24667 17.5L3.41833 18.3283C3.20104 18.5469 3.07908 18.8426 3.07908 19.1508C3.07908 19.4591 3.20104 19.7547 3.41833 19.9733C3.63692 20.1906 3.93262 20.3126 4.24083 20.3126C4.54905 20.3126 4.84474 20.1906 5.06333 19.9733L5.89167 19.145C6.0828 18.9218 6.18267 18.6347 6.17133 18.3411C6.15999 18.0475 6.03827 17.769 5.83049 17.5612C5.62271 17.3534 5.34418 17.2317 5.05056 17.2203C4.75694 17.209 4.46985 17.3089 4.24667 17.5ZM11.6667 3.5C11.9761 3.5 12.2728 3.37708 12.4916 3.15829C12.7104 2.9395 12.8333 2.64275 12.8333 2.33333V1.16667C12.8333 0.857247 12.7104 0.560501 12.4916 0.341709C12.2728 0.122916 11.9761 0 11.6667 0C11.3572 0 11.0605 0.122916 10.8417 0.341709C10.6229 0.560501 10.5 0.857247 10.5 1.16667V2.33333C10.5 2.64275 10.6229 2.9395 10.8417 3.15829C11.0605 3.37708 11.3572 3.5 11.6667 3.5ZM18.27 6.23C18.5761 6.22871 18.8694 6.1072 19.0867 5.89167L19.915 5.06333C20.0371 4.95875 20.1363 4.83004 20.2063 4.6853C20.2764 4.54056 20.3157 4.3829 20.3219 4.22223C20.3281 4.06156 20.3011 3.90134 20.2424 3.75162C20.1838 3.60191 20.0948 3.46594 19.9811 3.35224C19.8674 3.23854 19.7314 3.14958 19.5817 3.09092C19.432 3.03227 19.2718 3.0052 19.1111 3.0114C18.9504 3.01761 18.7928 3.05696 18.648 3.12699C18.5033 3.19701 18.3746 3.2962 18.27 3.41833L17.5 4.24667C17.2827 4.46526 17.1607 4.76095 17.1607 5.06917C17.1607 5.37738 17.2827 5.67308 17.5 5.89167C17.7057 6.09626 17.9802 6.21688 18.27 6.23ZM4.27 5.89167C4.4873 6.1072 4.7806 6.22871 5.08667 6.23C5.24021 6.23089 5.39241 6.20146 5.53456 6.1434C5.6767 6.08534 5.80599 5.9998 5.915 5.89167C6.13229 5.67308 6.25426 5.37738 6.25426 5.06917C6.25426 4.76095 6.13229 4.46526 5.915 4.24667L5.08667 3.41833C4.97865 3.30879 4.85012 3.22159 4.70841 3.16172C4.5667 3.10185 4.41459 3.07048 4.26075 3.06939C4.10691 3.06831 3.95437 3.09754 3.81183 3.15541C3.66929 3.21328 3.53954 3.29865 3.43 3.40667C3.32046 3.51468 3.23326 3.64321 3.17339 3.78492C3.11352 3.92663 3.08214 4.07875 3.08106 4.23258C3.07887 4.54327 3.20019 4.8421 3.41833 5.06333L4.27 5.89167ZM22.1667 10.5H21C20.6906 10.5 20.3938 10.6229 20.175 10.8417C19.9562 11.0605 19.8333 11.3572 19.8333 11.6667C19.8333 11.9761 19.9562 12.2728 20.175 12.4916C20.3938 12.7104 20.6906 12.8333 21 12.8333H22.1667C22.4761 12.8333 22.7728 12.7104 22.9916 12.4916C23.2104 12.2728 23.3333 11.9761 23.3333 11.6667C23.3333 11.3572 23.2104 11.0605 22.9916 10.8417C22.7728 10.6229 22.4761 10.5 22.1667 10.5ZM19.0867 17.5C18.865 17.3767 18.6092 17.329 18.358 17.3641C18.1068 17.3992 17.8739 17.5153 17.6946 17.6946C17.5153 17.8739 17.3992 18.1068 17.3641 18.358C17.329 18.6092 17.3767 18.865 17.5 19.0867L18.3283 19.915C18.5469 20.1323 18.8426 20.2543 19.1508 20.2543C19.4591 20.2543 19.7547 20.1323 19.9733 19.915C20.1906 19.6964 20.3126 19.4007 20.3126 19.0925C20.3126 18.7843 20.1906 18.4886 19.9733 18.27L19.0867 17.5ZM11.6667 5.25C10.3976 5.25 9.15697 5.62633 8.10176 6.3314C7.04654 7.03648 6.2241 8.03862 5.73844 9.21111C5.25278 10.3836 5.12571 11.6738 5.37329 12.9185C5.62088 14.1632 6.23201 15.3066 7.1294 16.2039C8.02678 17.1013 9.17013 17.7125 10.4148 17.96C11.6595 18.2076 12.9497 18.0806 14.1222 17.5949C15.2947 17.1092 16.2969 16.2868 17.0019 15.2316C17.707 14.1764 18.0833 12.9358 18.0833 11.6667C18.0802 9.96581 17.4032 8.3355 16.2005 7.1328C14.9978 5.93011 13.3675 5.25308 11.6667 5.25ZM11.6667 15.75C10.8591 15.75 10.0696 15.5105 9.39809 15.0618C8.72659 14.6132 8.20322 13.9754 7.89416 13.2293C7.5851 12.4832 7.50424 11.6621 7.66179 10.87C7.81935 10.078 8.20825 9.35038 8.77931 8.77931C9.35038 8.20825 10.078 7.81935 10.87 7.66179C11.6621 7.50424 12.4832 7.5851 13.2293 7.89416C13.9754 8.20322 14.6132 8.72659 15.0618 9.39809C15.5105 10.0696 15.75 10.8591 15.75 11.6667C15.75 12.7496 15.3198 13.7882 14.554 14.554C13.7882 15.3198 12.7496 15.75 11.6667 15.75ZM11.6667 19.8333C11.3572 19.8333 11.0605 19.9562 10.8417 20.175C10.6229 20.3938 10.5 20.6906 10.5 21V22.1667C10.5 22.4761 10.6229 22.7728 10.8417 22.9916C11.0605 23.2104 11.3572 23.3333 11.6667 23.3333C11.9761 23.3333 12.2728 23.2104 12.4916 22.9916C12.7104 22.7728 12.8333 22.4761 12.8333 22.1667V21C12.8333 20.6906 12.7104 20.3938 12.4916 20.175C12.2728 19.9562 11.9761 19.8333 11.6667 19.8333Z" fill="white"/>
</svg>
