<svg width="21" height="21" viewBox="0 0 21 21" fill="none" xmlns="http://www.w3.org/2000/svg">
<path d="M0.103663 11.5603C0.757455 16.3269 4.54381 20.1117 9.30983 20.765C9.81867 20.8349 10.3244 20.8687 10.8258 20.8687C15.0206 20.8687 18.8525 18.4814 20.6573 14.6083C21.054 13.7593 20.8837 12.778 20.2257 12.1078C19.5868 11.4577 18.6388 11.2757 17.8115 11.645C16.7673 12.1116 15.6395 12.2851 14.4727 12.1676C11.4851 11.8656 9.00411 9.38478 8.70262 6.39705C8.58411 5.22586 8.75971 4.10288 9.22414 3.05919C9.59334 2.23185 9.41242 1.28394 8.76286 0.644986C8.09119 -0.014547 7.10936 -0.185389 6.2609 0.21187C1.9254 2.23304 -0.549045 6.79377 0.103663 11.5603ZM7.24586 2.17693C6.63324 3.55124 6.39209 5.08579 6.54657 6.61502C6.95596 10.6711 10.1975 13.9127 14.2547 14.3237C15.7887 14.4782 17.3196 14.2364 18.6695 13.6175C18.6695 13.618 18.7161 13.6444 18.6939 13.692C18.6939 13.6915 18.6939 13.6925 18.6939 13.692C17.0773 17.1615 13.4284 19.1463 9.60406 18.6184C5.85681 18.1047 2.76444 15.0129 2.25137 11.2662C1.72758 7.44659 3.70705 3.79294 7.24586 2.17693Z" fill="white"/>
</svg>
