<svg width="19" height="21" viewBox="0 0 19 21" fill="none" xmlns="http://www.w3.org/2000/svg">
<path d="M17.5993 13.3244L16.7821 13.7332L17.5276 14.1697C17.9445 14.4147 18.0847 14.9502 17.8409 15.3672C17.6779 15.6452 17.3851 15.8001 17.0844 15.8001C16.934 15.8001 16.7824 15.7614 16.6434 15.6805L15.7502 15.1575V16.0417C15.7502 16.5247 15.3583 16.9167 14.8752 16.9167C14.3921 16.9167 14.0002 16.5247 14.0002 16.0417V14.1327L9.91674 11.7415L9.9428 16.6803L11.766 17.5923C12.1989 17.8088 12.3744 18.334 12.1579 18.7658C12.0041 19.0734 11.6954 19.25 11.3741 19.25C11.243 19.25 11.1097 19.2204 10.9844 19.1577L9.95319 18.6424L9.9579 19.5371C9.96017 20.0202 9.57053 20.4144 9.08746 20.4167H9.0829C8.60153 20.4167 8.21017 20.0282 8.2079 19.5462L8.20291 18.6064L7.09991 19.1577C6.66753 19.3742 6.14231 19.1999 5.92584 18.7658C5.70993 18.334 5.88482 17.8088 6.3172 17.5923L8.19266 16.6544L8.16667 11.7308L4.08354 14.1217V16.0417C4.08354 16.5248 3.69161 16.9167 3.20854 16.9167C2.72547 16.9167 2.33354 16.5248 2.33354 16.0417V15.1465L1.42151 15.6805C1.28251 15.7614 1.13042 15.8002 0.980022 15.8002C0.679815 15.8002 0.387005 15.6452 0.224652 15.3672C-0.0197301 14.9502 0.120398 14.4147 0.5374 14.1698L1.29135 13.7283L0.48385 13.3244C0.0514714 13.1079 -0.123412 12.5827 0.0924918 12.1509C0.308967 11.7168 0.834189 11.5448 1.26657 11.759L3.09419 12.6726L7.3005 10.2095L3.09205 7.74514L1.26657 8.65774C1.14067 8.7204 1.00737 8.75002 0.87578 8.75002C0.555064 8.75002 0.245733 8.57342 0.0924918 8.26581C-0.123412 7.834 0.0514714 7.30878 0.48385 7.09231L1.28928 6.68948L0.5374 6.2492C0.12041 6.00425 -0.0197301 5.46876 0.224652 5.05177C0.469033 4.63478 1.00622 4.49692 1.42151 4.73846L2.33354 5.27252V4.37501C2.33354 3.89194 2.72547 3.50001 3.20854 3.50001C3.69161 3.50001 4.08354 3.89194 4.08354 4.37501V6.29726L8.1505 8.6788L8.12436 3.72581L6.31776 2.82439C5.88538 2.60906 5.70992 2.08383 5.92582 1.65089C6.14173 1.21908 6.66809 1.0425 7.09933 1.25896L8.11404 1.76539L8.10933 0.879562C8.10706 0.396492 8.4967 0.00228667 8.97977 0H8.98433C9.4657 0 9.85706 0.388512 9.85933 0.870438L9.86432 1.81799L10.9844 1.25894C11.4185 1.04246 11.9437 1.21906 12.1579 1.65087C12.3744 2.08381 12.1978 2.60904 11.766 2.82437L9.87464 3.76809L9.90064 8.68691L14.0002 6.28628V4.375C14.0002 3.89193 14.3921 3.5 14.8752 3.5C15.3583 3.5 15.7502 3.89193 15.7502 4.375V5.26147L16.6434 4.73845C17.0593 4.49577 17.5959 4.63364 17.8409 5.05176C18.0847 5.46875 17.9445 6.00424 17.5276 6.24919L16.7842 6.68449L17.5993 7.09229C18.0323 7.30877 18.2077 7.83399 17.9913 8.2658C17.8374 8.57341 17.5287 8.75001 17.2074 8.75001C17.0764 8.75001 16.9431 8.72039 16.8178 8.65773L14.9816 7.74001L10.7645 10.2095L14.9795 12.6777L16.8178 11.759C17.2507 11.5425 17.7748 11.7168 17.9913 12.1509C18.2077 12.5827 18.0323 13.1079 17.5993 13.3244Z" fill="white"/>
</svg>
