<svg width="12" height="12" viewBox="0 0 12 12" fill="none" xmlns="http://www.w3.org/2000/svg">
<path d="M6 12C3.5 12 1.5 10 1.5 7.5C1.5 5.5 2.7 3.4 3.2 2.6C3.5 2.15 4.9 0 6 0C7.4 0 10.5 4.35 10.5 7.5C10.5 10 8.5 12 6 12ZM6 1C5.3 1.1 2.5 4.7 2.5 7.5C2.5 9.45 4.05 11 6 11C7.95 11 9.5 9.45 9.5 7.5C9.5 4.7 6.7 1.1 6 1Z" fill="white"/>
<path d="M6 10H5.95C4.7 9.95 3.6 8.8 3.5 7.55V7.5C3.5 7.2 3.7 7 4 7C4.25 7 4.5 7.2 4.5 7.5C4.5 8.25 5.25 9 6 9C6.25 9 6.5 9.25 6.5 9.5C6.5 9.75 6.3 10 6 10Z" fill="white"/>
</svg>
