<svg width="25" height="25" viewBox="0 0 25 25" fill="none" xmlns="http://www.w3.org/2000/svg">
<path d="M7.46702 20.9841C7.47407 20.9772 8.7225 18.9872 8.7299 18.9872C8.92822 18.6785 9.34679 18.5826 9.65553 18.7889C9.95616 18.9872 10.0446 19.405 9.84627 19.7061C9.83886 19.7141 8.58338 21.704 8.58338 21.7118C8.37766 21.9899 7.98807 22.0631 7.68745 21.8654C7.39323 21.6816 7.29804 21.2922 7.47408 20.991L7.46702 20.9841ZM11.3536 19.9782C11.3536 19.9712 11.8297 19.17 11.8375 19.17C12.0351 18.862 12.4431 18.7746 12.7512 18.9724C13.0594 19.17 13.1456 19.5898 12.9469 19.8981C12.9398 19.8981 12.4614 20.6981 12.4614 20.6981C12.2409 20.9772 11.86 21.0503 11.5735 20.8595C11.2726 20.6691 11.1772 20.2866 11.3536 19.9851V19.9782Z" fill="#C4C4C4"/>
<path d="M2.37402 12.0872C2.37402 9.84381 4.19265 8.00613 6.43608 8.00613C6.68679 8.00613 6.93173 8.02677 7.16986 8.07022C7.37347 5.30332 9.68111 3.11963 12.5 3.11963C15.3193 3.11963 17.6269 5.30115 17.8303 8.06834C18.0693 8.02447 18.3154 7.99996 18.5673 7.99996C20.8089 7.99996 22.626 9.84251 22.626 12.0841C22.626 14.316 20.8245 16.1748 18.5963 16.1748C18.5963 16.1748 18.2644 16.1748 17.7107 16.1748C17.7017 16.1748 17.692 16.1945 17.6813 16.2104C17.6813 16.2104 15.5149 19.5014 15.5078 19.5086C15.3021 19.7795 14.9125 19.8494 14.6195 19.6589C14.3179 19.4682 14.2301 19.0876 14.3916 18.7865C14.3967 18.7825 15.482 17.1156 16.1162 16.1748H13.3387C13.3301 16.1748 13.3219 16.194 13.3121 16.2081C13.3045 16.2081 12.4308 17.6049 12.4308 17.6049C12.2179 17.8839 11.829 17.9547 11.5346 17.7643C11.2416 17.5736 11.1457 17.1743 11.3151 16.8804H11.3073C11.3114 16.8804 11.5401 16.5276 11.7642 16.1748H9.30822C9.29964 16.1748 9.29058 16.194 9.28065 16.2081C9.28065 16.2081 7.44503 18.956 7.43762 18.9642C7.22477 19.2423 6.83519 19.3059 6.54144 19.115C6.24811 18.9242 6.16009 18.5535 6.32125 18.2454C6.32613 18.2412 7.16827 16.9391 7.71214 16.1748C6.93661 16.1748 6.44761 16.1748 6.43614 16.1748C4.19265 16.1749 2.37402 14.3306 2.37402 12.0872Z" fill="#C4C4C4"/>
</svg>
