<svg width="18" height="18" viewBox="0 0 18 18" fill="none" xmlns="http://www.w3.org/2000/svg">
<path d="M16.6248 11.442L15.9921 11.7624L16.5692 12.1045C16.892 12.2964 17.0005 12.7161 16.8118 13.0428C16.6857 13.2607 16.459 13.3821 16.2261 13.3821C16.1097 13.3821 15.9924 13.3518 15.8848 13.2884L15.1933 12.8785V13.5714C15.1933 13.95 14.8898 14.2571 14.5159 14.2571C14.1419 14.2571 13.8385 13.95 13.8385 13.5714V12.0754L10.6772 10.2015L10.6974 14.0719L12.1088 14.7866C12.444 14.9562 12.5798 15.3678 12.4122 15.7062C12.2932 15.9473 12.0541 16.0857 11.8054 16.0857C11.704 16.0857 11.6008 16.0625 11.5038 16.0134L10.7054 15.6095L10.7091 16.3107C10.7108 16.6893 10.4092 16.9982 10.0352 17H10.0317C9.65901 17 9.35603 16.6955 9.35427 16.3179L9.35041 15.5813L8.49651 16.0134C8.16177 16.1831 7.75517 16.0464 7.58758 15.7063C7.42043 15.3679 7.55582 14.9563 7.89055 14.7866L9.34247 14.0516L9.32235 10.1931L6.16134 12.0668V13.5714C6.16134 13.95 5.85792 14.2572 5.48394 14.2572C5.10997 14.2572 4.80655 13.95 4.80655 13.5714V12.8699L4.10049 13.2884C3.99288 13.3518 3.87513 13.3822 3.7587 13.3822C3.52629 13.3822 3.29961 13.2607 3.17392 13.0429C2.98473 12.7161 3.09321 12.2964 3.41604 12.1045L3.99972 11.7585L3.37458 11.442C3.03985 11.2723 2.90446 10.8607 3.0716 10.5223C3.23919 10.1822 3.6458 10.0473 3.98053 10.2152L5.39541 10.9311L8.65179 9.0009L5.39376 7.06966L3.98053 7.78484C3.88307 7.83394 3.77987 7.85716 3.678 7.85716C3.42971 7.85716 3.19024 7.71876 3.0716 7.47769C2.90446 7.1393 3.03985 6.7277 3.37458 6.55805L3.99812 6.24236L3.41604 5.89733C3.09322 5.70537 2.98473 5.28572 3.17392 4.95894C3.36311 4.63215 3.77898 4.52411 4.10049 4.71341L4.80655 5.13193V4.42858C4.80655 4.05001 5.10997 3.74286 5.48394 3.74286C5.85792 3.74286 6.16134 4.05001 6.16134 4.42858V5.93499L9.30983 7.80134L9.2896 3.91982L7.89099 3.2134C7.55626 3.04465 7.42042 2.63304 7.58757 2.29376C7.75471 1.95536 8.16221 1.81698 8.49606 1.98661L9.28161 2.38349L9.27797 1.68929C9.27621 1.31072 9.57785 1.00179 9.95183 1H9.95536C10.328 1 10.631 1.30447 10.6328 1.68214L10.6366 2.42471L11.5038 1.9866C11.8398 1.81695 12.2464 1.95535 12.4122 2.29374C12.5798 2.63302 12.4431 3.04463 12.1088 3.21338L10.6446 3.95295L10.6647 7.80769L13.8385 5.92639V4.42857C13.8385 4.05 14.1419 3.74286 14.5159 3.74286C14.8898 3.74286 15.1933 4.05 15.1933 4.42857V5.12327L15.8848 4.7134C16.2067 4.52322 16.6221 4.63126 16.8118 4.95893C17.0005 5.28571 16.892 5.70536 16.5692 5.89732L15.9938 6.23845L16.6248 6.55804C16.96 6.72769 17.0958 7.13929 16.9282 7.47768C16.8091 7.71875 16.5701 7.85715 16.3214 7.85715C16.2199 7.85715 16.1167 7.83394 16.0197 7.78483L14.5982 7.06563L11.3335 9.0009L14.5966 10.9352L16.0197 10.2152C16.3549 10.0455 16.7606 10.1821 16.9282 10.5223C17.0958 10.8607 16.96 11.2723 16.6248 11.442Z" fill="white"/>
</svg>
