<svg width="100" height="47" viewBox="0 0 100 47" fill="none" xmlns="http://www.w3.org/2000/svg">
<path d="M49.9092 0C56.4751 2.13895e-07 62.9768 1.29305 69.043 3.80566C75.1092 6.3184 80.6217 10.0016 85.2646 14.6445C89.9076 19.2875 93.5908 24.7999 96.1035 30.8662C98.2327 36.0067 99.4854 41.46 99.8184 47H95.5723C95.2449 42.0166 94.1058 37.1128 92.1895 32.4863C89.8896 26.9341 86.519 21.8891 82.2695 17.6396C78.0201 13.3902 72.975 10.0196 67.4229 7.71973C61.8705 5.41985 55.919 4.23535 49.9092 4.23535C43.8993 4.23535 37.9479 5.41985 32.3955 7.71973C26.8433 10.0196 21.7983 13.3902 17.5488 17.6396C13.2993 21.8891 9.92877 26.9341 7.62891 32.4863C5.71257 37.1128 4.57349 42.0166 4.24609 47H0C0.333002 41.46 1.58565 36.0067 3.71484 30.8662C6.22758 24.7999 9.91078 19.2875 14.5537 14.6445C19.1966 10.0016 24.7091 6.3184 30.7754 3.80566C36.8415 1.29305 43.3433 2.87006e-07 49.9092 0Z" fill="url(#paint0_linear_135_16)"/>
<circle cx="69.4092" cy="6.5" r="6.5" fill="#FFDE98"/>
<defs>
<linearGradient id="paint0_linear_135_16" x1="49.9092" y1="0" x2="49.9092" y2="48" gradientUnits="userSpaceOnUse">
<stop stop-color="#D9D9D9"/>
<stop offset="1" stop-color="white" stop-opacity="0"/>
</linearGradient>
</defs>
</svg>
