<svg width="14" height="14" viewBox="0 0 14 14" fill="none" xmlns="http://www.w3.org/2000/svg">
<g clip-path="url(#clip0_214_413)">
<path d="M7.58333 0.583333V1.75C7.58333 1.90471 7.52187 2.05308 7.41248 2.16248C7.30308 2.27188 7.15471 2.33333 7 2.33333C6.84529 2.33333 6.69692 2.27188 6.58752 2.16248C6.47812 2.05308 6.41667 1.90471 6.41667 1.75V0.583333C6.41667 0.428624 6.47812 0.280251 6.58752 0.170854C6.69692 0.0614582 6.84529 0 7 0C7.15471 0 7.30308 0.0614582 7.41248 0.170854C7.52187 0.280251 7.58333 0.428624 7.58333 0.583333ZM7 11.6667C6.84529 11.6667 6.69692 11.7281 6.58752 11.8375C6.47812 11.9469 6.41667 12.0953 6.41667 12.25V13.4167C6.41667 13.5714 6.47812 13.7197 6.58752 13.8291C6.69692 13.9385 6.84529 14 7 14C7.15471 14 7.30308 13.9385 7.41248 13.8291C7.52187 13.7197 7.58333 13.5714 7.58333 13.4167V12.25C7.58333 12.0953 7.52187 11.9469 7.41248 11.8375C7.30308 11.7281 7.15471 11.6667 7 11.6667ZM2.05027 2.05027C1.9961 2.10444 1.95313 2.16875 1.92381 2.23952C1.8945 2.3103 1.87941 2.38615 1.87941 2.46276C1.87941 2.53937 1.8945 2.61522 1.92381 2.686C1.95313 2.75677 1.9961 2.82108 2.05027 2.87525L2.87525 3.70023C2.98465 3.80963 3.13303 3.87109 3.28774 3.87109C3.44245 3.87109 3.59083 3.80963 3.70023 3.70023C3.80963 3.59083 3.87109 3.44245 3.87109 3.28774C3.87109 3.13303 3.80963 2.98465 3.70023 2.87525L2.87525 2.05027C2.82108 1.9961 2.75677 1.95313 2.686 1.92381C2.61522 1.8945 2.53937 1.87941 2.46276 1.87941C2.38615 1.87941 2.3103 1.8945 2.23952 1.92381C2.16875 1.95313 2.10444 1.9961 2.05027 2.05027ZM10.2998 10.2998C10.2456 10.3539 10.2026 10.4182 10.1733 10.489C10.144 10.5598 10.1289 10.6357 10.1289 10.7123C10.1289 10.7889 10.144 10.8647 10.1733 10.9355C10.2026 11.0063 10.2456 11.0706 10.2998 11.1247L11.1247 11.9497C11.1789 12.0039 11.2432 12.0469 11.314 12.0762C11.3848 12.1055 11.4606 12.1206 11.5372 12.1206C11.6138 12.1206 11.6897 12.1055 11.7605 12.0762C11.8313 12.0469 11.8956 12.0039 11.9497 11.9497C12.0039 11.8956 12.0469 11.8313 12.0762 11.7605C12.1055 11.6897 12.1206 11.6138 12.1206 11.5372C12.1206 11.4606 12.1055 11.3848 12.0762 11.314C12.0469 11.2432 12.0039 11.1789 11.9497 11.1247L11.1247 10.2998C11.0706 10.2456 11.0063 10.2026 10.9355 10.1733C10.8647 10.144 10.7889 10.1289 10.7123 10.1289C10.6357 10.1289 10.5598 10.144 10.489 10.1733C10.4182 10.2026 10.3539 10.2456 10.2998 10.2998ZM0 7C0 7.15471 0.0614582 7.30308 0.170854 7.41248C0.280251 7.52187 0.428624 7.58333 0.583333 7.58333H1.75C1.90471 7.58333 2.05308 7.52187 2.16248 7.41248C2.27188 7.30308 2.33333 7.15471 2.33333 7C2.33333 6.84529 2.27188 6.69692 2.16248 6.58752C2.05308 6.47812 1.90471 6.41667 1.75 6.41667H0.583333C0.428624 6.41667 0.280251 6.47812 0.170854 6.58752C0.0614582 6.69692 0 6.84529 0 7ZM11.6667 7C11.6667 7.15471 11.7281 7.30308 11.8375 7.41248C11.9469 7.52187 12.0953 7.58333 12.25 7.58333H13.4167C13.5714 7.58333 13.7197 7.52187 13.8291 7.41248C13.9385 7.30308 14 7.15471 14 7C14 6.84529 13.9385 6.69692 13.8291 6.58752C13.7197 6.47812 13.5714 6.41667 13.4167 6.41667H12.25C12.0953 6.41667 11.9469 6.47812 11.8375 6.58752C11.7281 6.69692 11.6667 6.84529 11.6667 7ZM2.05027 11.9497C2.10444 12.0039 2.16875 12.0469 2.23952 12.0762C2.3103 12.1055 2.38615 12.1206 2.46276 12.1206C2.53937 12.1206 2.61522 12.1055 2.686 12.0762C2.75677 12.0469 2.82108 12.0039 2.87525 11.9497L3.70008 11.1247C3.80747 11.015 3.86722 10.8672 3.86637 10.7137C3.86553 10.5601 3.80415 10.413 3.69557 10.3044C3.58698 10.1958 3.43994 10.1344 3.28637 10.1336C3.13279 10.1327 2.98506 10.1924 2.87525 10.2998L2.05027 11.1247C1.9961 11.1789 1.95313 11.2432 1.92381 11.314C1.8945 11.3848 1.87941 11.4606 1.87941 11.5372C1.87941 11.6138 1.8945 11.6897 1.92381 11.7605C1.95313 11.8313 1.9961 11.8956 2.05027 11.9497ZM10.2998 3.70023C10.3539 3.7544 10.4182 3.79737 10.489 3.82669C10.5598 3.856 10.6357 3.87109 10.7123 3.87109C10.7889 3.87109 10.8647 3.856 10.9355 3.82669C11.0063 3.79737 11.0706 3.7544 11.1247 3.70023L11.9497 2.87525C12.0591 2.76585 12.1206 2.61747 12.1206 2.46276C12.1206 2.30805 12.0591 2.15967 11.9497 2.05027C11.8403 1.94087 11.692 1.87941 11.5372 1.87941C11.3825 1.87941 11.2341 1.94087 11.1247 2.05027L10.2998 2.87525C10.2456 2.92942 10.2026 2.99373 10.1733 3.0645C10.144 3.13528 10.1289 3.21113 10.1289 3.28774C10.1289 3.36435 10.144 3.4402 10.1733 3.51098C10.2026 3.58175 10.2456 3.64606 10.2998 3.70023ZM10.5 7C10.5 8.93302 8.93302 10.5 7 10.5C5.06698 10.5 3.5 8.93302 3.5 7C3.5 5.06698 5.06698 3.5 7 3.5C8.93302 3.5 10.5 5.06698 10.5 7ZM9.33333 7C9.33333 5.71127 8.28873 4.66667 7 4.66667C5.71127 4.66667 4.66667 5.71127 4.66667 7C4.66667 8.28873 5.71127 9.33333 7 9.33333C8.28873 9.33333 9.33333 8.28873 9.33333 7Z" fill="white"/>
</g>
<defs>
<clipPath id="clip0_214_413">
<rect width="14" height="14" fill="white"/>
</clipPath>
</defs>
</svg>
